<?xml version="1.0" encoding="UTF-8" standalone="no"?>
<!-- Created with Inkscape (http://www.inkscape.org/) -->
<svg xmlns:rdf="http://www.w3.org/1999/02/22-rdf-syntax-ns#" xmlns="http://www.w3.org/2000/svg" height="16.323mm" width="130.21mm" version="1.1" xmlns:cc="http://creativecommons.org/ns#" xmlns:dc="http://purl.org/dc/elements/1.1/" viewBox="0 0 130.21027 16.322752">
 <metadata>
  <rdf:RDF>
   <cc:Work rdf:about="">
    <dc:format>image/svg+xml</dc:format>
    <dc:type rdf:resource="http://purl.org/dc/dcmitype/StillImage"/>
    <dc:title/>
   </cc:Work>
  </rdf:RDF>
 </metadata>
 <g transform="translate(-19.892 -72.404)">
  <flowRoot style="word-spacing:0px;letter-spacing:0px" xml:space="preserve" font-size="40px" transform="scale(.26458)" line-height="1.25" font-family="&apos;Chopin Script&apos;" fill="#000000"><flowRegion><rect y="255.38" width="217.14" x="115.71" height="178.57"/></flowRegion><flowPara/></flowRoot>
  <g aria-label="Vinarija Radulovic" transform="matrix(1.0766 0 0 1.0766 -11.492 -5.5435)">
   <path d="m51.166 72.931q0.46328 0.28755 0.73485 0.7668 0.27158 0.47925 0.27158 1.0544 0 0.41535-0.15975 0.78278-0.14378 0.36742-0.39938 0.65498-0.2556 0.27158-0.62303 0.46328-0.35145 0.17572-0.75083 0.23962-0.22365 0.03195-0.43132 0.0639-0.20768 0.03195-0.47925 0.03195-0.2556 0-0.36743-0.09585-0.11182-0.11182-0.11182-0.23962 0-0.17572 0.14378-0.27158 0.15975-0.09585 0.35145-0.09585 0.14378 0 0.20768 0.07988 0.0639 0.0639 0.11182 0.14378t0.09585 0.14378q0.0639 0.04792 0.20768 0.01597 0.71888-0.1278 1.2141-0.62302 0.49523-0.49523 0.54315-1.1981 0.03195-0.55913-0.22365-1.0544-0.23963-0.5112-0.65498-0.75083-0.3195-0.1917-0.75083-0.1917-0.22365 0-0.4473 0.01597-0.20768 0-0.43132 0.07988-0.33548 0.09585-0.75083 0.33548-0.41535 0.22365-0.84668 0.54315-0.43132 0.30352-0.8307 0.65498-0.39938 0.35145-0.67095 0.68693-0.47925 0.5751-1.1662 1.5496-0.67095 0.97448-1.5176 2.1087-0.8307 1.1183-1.8212 2.3004-0.99045 1.1822-2.0927 2.1726-1.294 1.1502-2.6039 1.6295-1.31 0.47925-2.6199 0.46328-0.1278 0-0.1278-0.1278 0.03195-0.14378 0.14378-0.11182h0.01597q0.5751-0.11182 1.1981-0.59108 0.639-0.49523 1.262-1.2141 0.639-0.71888 1.2461-1.5815 0.60705-0.87862 1.1502-1.7732 0.67095-1.1023 1.1342-1.949 0.46328-0.86265 0.7668-1.5017 0.3195-0.639 0.49522-1.0703 0.1917-0.43132 0.3195-0.65498-0.5112-0.11182-1.1662-0.30352-0.639-0.20768-1.4218-0.5751-1.3579-0.639-2.4282-0.9585-1.0703-0.33548-2.0608-0.33548-0.9585 0-1.8691 0.28755-0.8946 0.28755-1.5975 0.8307t-1.1342 1.31q-0.43132 0.7668-0.43132 1.7253 0 0.78278 0.27158 1.5017 0.2556 0.7029 0.73485 1.2461 0.47925 0.54315 1.1502 0.86265 0.68692 0.3195 1.5336 0.30353 0.5112-0.03195 1.0384-0.20768 0.52718-0.17572 1.0384-0.52718 0.5751-0.39938 0.8307-0.92655 0.27158-0.54315 0.27158-1.1023 0-0.79875-0.49523-1.4218-0.49522-0.639-1.4218-0.75083-0.11182-0.01597-0.17572 0.04792-0.04793 0.04793-0.09585 0.1278-0.04792 0.07988-0.1278 0.14378-0.0639 0.0639-0.20768 0.0639-0.17572 0-0.33548-0.09585-0.15975-0.09585-0.15975-0.27158 0-0.14378 0.1278-0.23962 0.1278-0.09585 0.3834-0.09585 0.68692 0.04793 1.0064 0.14378 0.41535 0.11182 0.73485 0.35145 0.33548 0.22365 0.55913 0.54315 0.22365 0.30352 0.33548 0.68693 0.1278 0.36742 0.1278 0.7668 0 0.60705-0.30352 1.2141-0.28755 0.59108-0.92655 1.0224-0.60705 0.41535-1.2301 0.60705-0.62303 0.17572-1.2301 0.17572-0.73485 0-1.3739-0.22365-0.65498-0.22365-1.1662-0.5751-0.75083-0.5112-1.1342-1.3259-0.39938-0.8307-0.39938-1.7413 0-1.0224 0.49523-1.8851 0.47925-0.86265 1.278-1.4857 0.78278-0.62303 1.8052-0.97448t2.0927-0.35145q1.0384 0 2.1407 0.33548 1.1023 0.3195 2.4602 0.97448 0.79875 0.36742 1.4378 0.5751 0.65498 0.20768 1.1662 0.30352 0.1917-0.30352 0.46328-0.65498 0.28755-0.35145 0.68692-0.639 0.39938-0.30352 0.8946-0.5112 0.5112-0.20768 1.1502-0.20768 0.20768 0 0.43133 0.03195t0.41535 0.11182q0.1917 0.0639 0.30352 0.17572t0.09585 0.28755q-0.01598 0.33548-0.35145 0.65498-0.3195 0.30352-0.79875 0.55912-0.47925 0.23962-1.0544 0.39938-0.55912 0.14378-1.0384 0.14378-0.20768 0-0.47925-0.01597-0.2556-0.01597-0.59108-0.0639-0.0639 0.09585-0.36743 0.75082-0.28755 0.65498-0.78278 1.6295-0.49523 0.97448-1.1662 2.1407-0.65498 1.1662-1.4378 2.2844-0.7668 1.1023-1.6295 2.0448-0.86265 0.92655-1.7573 1.4378 0.47925-0.07988 0.92655-0.22365 0.46328-0.14378 0.92655-0.3834 0.47925-0.2556 0.97448-0.65498 0.49522-0.41535 1.0544-1.0224 1.0863-1.1342 2.0448-2.3004 0.97448-1.1662 1.7892-2.2205 0.8307-1.0703 1.5017-1.949 0.67095-0.87863 1.1981-1.4378 0.3834-0.39938 0.8946-0.81473 0.5112-0.43132 1.1023-0.7668 0.60705-0.35145 1.262-0.5751 0.65498-0.22365 1.3259-0.22365 0.3195 0 0.60705 0.09585t0.54315 0.2556zm-5.9427-0.11182q-0.55912 0-1.0224 0.17572t-0.8307 0.4473q-0.35145 0.27158-0.62303 0.59108-0.27158 0.30352-0.4473 0.59108 0.28755 0.04793 0.5112 0.0639 0.23962 0.01597 0.41535 0.01597 0.55913 0 1.1023-0.15975 0.55913-0.15975 1.0384-0.46328 0.39938-0.22365 0.59108-0.49523 0.20768-0.27158 0.2556-0.39938 0.03195-0.09585-0.0639-0.15975t-0.2556-0.11182q-0.14378-0.04793-0.33548-0.0639-0.17572-0.03195-0.33548-0.03195z"/>
   <path d="m40.049 84.576q0-0.1278 0.03195-0.22365 0.01597-0.09585 0.04792-0.1278l2.9394-3.818q0.0639-0.09585 0.17572-0.09585 0.1278 0 0.1917 0.1278 0.07987 0.11182 0.11182 0.2556t0.03195 0.28755q0 0.1278-0.01597 0.15975-0.75082 0.97448-1.3419 1.7413-0.2556 0.33548-0.49522 0.65498-0.23963 0.3195-0.43133 0.5751-0.20768 0.23963-0.33548 0.41535-0.1278 0.15975-0.14378 0.17572 0 0.01597-0.03195 0.07988-0.03195 0.04793-0.03195 0.11182 0 0.04793 0.0639 0.1278 0.04792 0.0639 0.3834 0.09585h0.04792q0.0639 0 0.2556-0.03195t0.47925-0.15975q0.28755-0.14378 0.67095-0.41535 0.39938-0.28755 0.87863-0.78278l1.949-2.1407q0.07988-0.07988 0.17572 0 0.07988 0.07988 0.01597 0.17572l-1.949 2.1407q-0.5112 0.5112-0.92655 0.79875-0.39938 0.28755-0.7029 0.43132-0.3195 0.14378-0.52718 0.1917-0.22365 0.03195-0.3195 0.03195h-0.07987q-0.33548-0.01597-0.54315-0.07988-0.22365-0.07988-0.35145-0.1917t-0.17572-0.23962q-0.04792-0.14378-0.04792-0.27158zm4.7286-5.128q-0.07988 0.09585-0.23962 0.23963-0.14378 0.1278-0.3195 0.2556-0.15975 0.11182-0.30352 0.17572-0.14378 0.0639-0.1917 0.01597-0.0639-0.04792-0.03195-0.1917 0.04793-0.15975 0.1278-0.33548 0.09585-0.1917 0.1917-0.36743 0.11182-0.17572 0.1917-0.27158 0.15975-0.17572 0.35145-0.22365 0.1917-0.0639 0.30352 0.03195 0.1278 0.11182 0.09585 0.30352-0.01598 0.1917-0.17572 0.36742z"/>
   <path d="m52.754 81.589q0.09585 0.0639 0.01597 0.17572l-1.949 2.1407q-0.5112 0.5112-0.92655 0.79875-0.39938 0.28755-0.71888 0.43132-0.30352 0.14378-0.52718 0.1917-0.20768 0.03195-0.30352 0.03195h-0.07988q-0.33548-0.01597-0.55912-0.07988-0.20768-0.07988-0.33548-0.1917t-0.17572-0.23962-0.04792-0.2556q0-0.14378 0.03195-0.23962 0.03195-0.09585 0.04792-0.1278l2.9394-3.818q0-0.04792-0.0639-0.0639-0.04792-0.03195-0.1278-0.04793-0.0639-0.01597-0.1278-0.01597t-0.04792 0q-0.3834 0-0.92655 0.20768-0.52718 0.1917-1.2301 0.7029-0.7029 0.5112-1.6295 1.3898-0.91058 0.86265-2.0608 2.1886-0.11182 0.1278-0.17572 0.22365-0.07988 0.07988-0.1278 0.14378-0.0639 0.0639-0.11182 0.1278-0.07988 0.09585-0.1917 0.09585-0.11182-0.01597-0.17572-0.09585-0.07987-0.09585-0.11182-0.20768-0.04793-0.1278-0.04793-0.2556t0.03195-0.22365l3.195-4.1375q0.03195-0.03195 0.07988-0.07988 0.0639-0.0639 0.14378-0.04793 0.1278 0 0.23963 0.1917 0.1278 0.1917 0.09585 0.60705-0.03195 0.03195-0.14378 0.17572-0.11182 0.14378-0.28755 0.35145-0.15975 0.20768-0.36742 0.47925-0.1917 0.2556-0.41535 0.54315 0.7668-0.75082 1.3898-1.2461 0.62302-0.5112 1.1342-0.79875 0.5112-0.30352 0.92655-0.43132 0.43132-0.14378 0.78278-0.15975 0.4473-0.01597 0.67095 0.33548 0.23962 0.33548 0.17572 0.78278-0.75083 0.97448-1.3419 1.7413-0.2556 0.33548-0.49523 0.65498-0.23962 0.3195-0.4473 0.5751-0.1917 0.23963-0.3195 0.41535-0.1278 0.15975-0.14378 0.17572 0 0.01597-0.03195 0.07988-0.03195 0.04793-0.03195 0.11182 0 0.04793 0.04792 0.1278 0.0639 0.0639 0.39938 0.09585h0.04792q0.0639 0 0.23962-0.03195 0.1917-0.03195 0.47925-0.15975 0.28755-0.14378 0.67095-0.41535 0.39938-0.28755 0.8946-0.78278l1.949-2.1407q0.07988-0.07988 0.17572 0z"/>
   <path d="m59.98 81.573q0.07988 0.0639 0 0.17572l-1.949 2.1407q-0.5112 0.5112-0.92655 0.79875-0.39938 0.28755-0.71888 0.4473-0.30352 0.14378-0.5112 0.1917-0.20768 0.03195-0.30353 0.03195h-0.07988q-0.33548-0.01597-0.55912-0.09585-0.20768-0.07987-0.33548-0.1917-0.1278-0.11182-0.1917-0.23962-0.04792-0.14378-0.04792-0.27158-0.35145 0.3195-0.7668 0.55912-0.39938 0.23963-0.7668 0.23963h-0.01597q-0.36742 0-0.65498-0.23963-0.3195-0.23962-0.46328-0.60705-0.14378-0.36742-0.14378-0.79875 0-0.55912 0.23962-1.1662 0.22365-0.62302 0.68693-1.1822 0.52718-0.67095 1.2301-1.0064 0.7029-0.35145 1.3739-0.35145 0.3195 0 0.60705 0.09585 0.30353 0.07988 0.52718 0.27158 0.43132 0.33548 0.43132 0.81473 0 0.04793-0.01597 0.09585 0 0.04792-0.01597 0.11182l0.7668-1.0064q0.0639-0.09585 0.17572-0.09585 0.1278 0 0.1917 0.1278 0.07988 0.11182 0.11182 0.2556 0.04792 0.14378 0.04792 0.28755 0 0.1278-0.01598 0.15975-0.75082 0.97448-1.3419 1.7413-0.2556 0.33548-0.5112 0.65498-0.23962 0.3195-0.43133 0.5751-0.1917 0.23963-0.3195 0.41535-0.1278 0.15975-0.14378 0.17572 0 0.01597-0.04792 0.07988-0.03195 0.04792-0.03195 0.11182 0 0.1278 0.1917 0.17572 0.1917 0.04793 0.3195 0.04793 0.0639 0 0.23963-0.03195 0.1917-0.03195 0.47925-0.15975 0.28755-0.14378 0.67095-0.41535 0.39938-0.28755 0.8946-0.78278l1.949-2.1407q0.07988-0.07988 0.17572 0zm-7.1568 3.5465q0.23962 0 0.5112-0.1278t0.55913-0.36742q0.30352-0.23962 0.60705-0.55913 0.30353-0.3195 0.59108-0.68692l0.78278-1.0224q0.23962-0.35145 0.3834-0.639 0.14378-0.30352 0.1278-0.52718 0-0.17572-0.07988-0.33548-0.0639-0.17572-0.23962-0.28755-0.1278-0.07988-0.28755-0.09585-0.14378-0.03195-0.3195-0.03195-0.59108 0-1.2461 0.39938-0.65498 0.3834-1.1662 1.0064-0.43132 0.54315-0.67095 1.1981-0.2556 0.65498-0.2556 1.1981 0 0.22365 0.03195 0.39938 0.01598 0.15975 0.14378 0.28755 0.2556 0.1917 0.52718 0.1917z"/>
   <path d="m65.765 81.589q0.09585-0.09585 0.17572-0.01597 0.07987 0.09585 0 0.17572l-1.949 2.1566q-0.5112 0.49523-0.92655 0.78278-0.39938 0.28755-0.71888 0.4473-0.30352 0.14378-0.5112 0.1917-0.20768 0.03195-0.30353 0.03195h-0.07987q-0.33548-0.01597-0.55912-0.09585-0.20768-0.07987-0.33548-0.1917-0.1278-0.11182-0.1917-0.23962-0.04792-0.1278-0.04792-0.2556 0.01597-0.14378 0.04792-0.22365 0.03195-0.09585 0.04792-0.1278l2.9075-3.8021q-0.15975-0.07987-0.3834-0.11182-0.22365-0.04792-0.49522-0.04792-0.22365 0-0.4473 0.03195-0.22365 0.01597-0.41535 0.0639-0.17572 0.03195-0.30352 0.07988-0.1278 0.04792-0.14378 0.0639-0.03195 0.03195-0.22365 0.23963-0.17572 0.1917-0.3834 0.41535-0.23962 0.27158-0.54315 0.59108-0.03195 0.04792-0.11182 0.04792-0.01598 0-0.07988-0.03195-0.09585-0.07988 0-0.17572 0.23962-0.2556 0.46328-0.49522 0.17572-0.1917 0.36742-0.3834 0.1917-0.20768 0.28755-0.30353-0.17572 0.01597-0.36743-0.0639-0.1917-0.09585-0.1917-0.2556 0-0.14378 0.1278-0.22365 0.1278-0.07988 0.27158-0.07988 0.1278 0 0.1917 0.0639 0.07987 0.04792 0.1278 0.11182t0.09585 0.1278 0.14378 0.07988q0.4473-0.14378 1.1342-0.14378 0.33548 0 0.65498 0.0639t0.52718 0.2556q0.14378 0.1278 0.1917 0.39938 0.0639 0.2556 0.03195 0.3834-0.75082 0.97448-1.3419 1.7413-0.2556 0.33548-0.49522 0.65498-0.23963 0.3195-0.4473 0.5751-0.1917 0.2556-0.3195 0.43133-0.1278 0.15975-0.14378 0.17572-0.03195 0.03195-0.04792 0.0639-0.03195 0.0639-0.03195 0.1278 0.01598 0.04793 0.0639 0.1278 0.0639 0.0639 0.39938 0.09585h0.04792q0.0639 0 0.23962-0.03195 0.1917-0.03195 0.47925-0.15975 0.28755-0.14378 0.67095-0.41535 0.39938-0.28755 0.8946-0.78278l1.949-2.1407z"/>
   <path d="m63.481 84.576q0-0.1278 0.03195-0.22365 0.01597-0.09585 0.04792-0.1278l2.9394-3.818q0.0639-0.09585 0.17572-0.09585 0.1278 0 0.1917 0.1278 0.07988 0.11182 0.11183 0.2556t0.03195 0.28755q0 0.1278-0.01597 0.15975-0.75083 0.97448-1.3419 1.7413-0.2556 0.33548-0.49522 0.65498t-0.43132 0.5751q-0.20768 0.23963-0.33548 0.41535-0.1278 0.15975-0.14378 0.17572 0 0.01597-0.03195 0.07988-0.03195 0.04793-0.03195 0.11182 0 0.04793 0.0639 0.1278 0.04793 0.0639 0.3834 0.09585h0.04793q0.0639 0 0.2556-0.03195t0.47925-0.15975q0.28755-0.14378 0.67095-0.41535 0.39938-0.28755 0.87862-0.78278l1.949-2.1407q0.07988-0.07988 0.17572 0 0.07988 0.07988 0.01597 0.17572l-1.949 2.1407q-0.5112 0.5112-0.92655 0.79875-0.39938 0.28755-0.7029 0.43132-0.3195 0.14378-0.52718 0.1917-0.22365 0.03195-0.3195 0.03195h-0.07988q-0.335-0.017-0.543-0.081-0.223-0.079-0.351-0.191t-0.176-0.24q-0.048-0.144-0.048-0.272zm4.7286-5.128q-0.07988 0.09585-0.23963 0.23963-0.14378 0.1278-0.3195 0.2556-0.15975 0.11182-0.30352 0.17572-0.14378 0.0639-0.1917 0.01597-0.0639-0.04792-0.03195-0.1917 0.04792-0.15975 0.1278-0.33548 0.09585-0.1917 0.1917-0.36743 0.11182-0.17572 0.1917-0.27158 0.15975-0.17572 0.35145-0.22365 0.1917-0.0639 0.30353 0.03195 0.1278 0.11182 0.09585 0.30352-0.01597 0.1917-0.17572 0.36742z"/>
   <path d="m72.304 81.573q0.07987 0.07988 0.01597 0.17572l-1.949 2.1407q-0.5112 0.5112-0.92655 0.79875-0.39938 0.28755-0.7029 0.4473-0.3195 0.14378-0.52718 0.1917-0.22365 0.03195-0.3195 0.03195-0.03195 0-0.27158-0.01597-0.23962-0.01598-0.52718-0.15975-0.36742 0.47925-0.81472 0.8946-0.46328 0.43133-1.0544 0.73485-0.59108 0.3195-1.31 0.47925-0.73485 0.17572-1.6295 0.1278-0.5112-0.01597-1.0544-0.09585-0.09585-0.01597-0.15975 0.11182-0.0639 0.14378-0.23962 0.1278-0.1278 0-0.23962-0.0639-0.1278-0.04792-0.1278-0.15975 0-0.1278 0.0639-0.23962t0.28755-0.07988q0.15975 0.01597 0.39938 0.03195 0.22365 0.03195 0.46328 0.04793 0.23962 0.03195 0.46328 0.04792 0.22365 0.01598 0.3834 0.01598 0.87863-0.04793 1.5815-0.41535 0.68692-0.35145 1.4697-1.1502 0.7668-0.78278 1.7413-2.0608 0.97448-1.278 2.3963-3.1471 0.0639-0.09585 0.17572-0.09585 0.1278 0 0.1917 0.11182 0.07988 0.11182 0.11182 0.2556 0.03195 0.14378 0.03195 0.28755 0 0.1278-0.01597 0.17572-0.01597 0.01597-0.17572 0.23962-0.15975 0.20768-0.41535 0.54315-0.23962 0.3195-0.54315 0.71888-0.3195 0.39938-0.62303 0.79875-0.30352 0.3834-0.55912 0.73485-0.27158 0.35145-0.4473 0.55912-0.01597 0.03195-0.03195 0.07988-0.01597 0.04793-0.01597 0.07988 0 0.04793 0.0639 0.14378 0.04792 0.07988 0.3834 0.07988h0.04792q0.0639 0 0.2556-0.03195t0.47925-0.15975q0.28755-0.14378 0.67095-0.41535 0.39938-0.28755 0.87863-0.78278l1.949-2.1407q0.07988-0.07988 0.17572 0zm-0.847-2.14q-0.07988 0.09585-0.22365 0.23963-0.14378 0.1278-0.3195 0.2556-0.15975 0.11182-0.30353 0.17572t-0.20768 0.01597-0.03195-0.1917q0.04793-0.15975 0.1278-0.33548 0.09585-0.1917 0.20768-0.36743 0.11183-0.17572 0.1917-0.27158 0.15975-0.17572 0.33548-0.23962 0.1917-0.0639 0.3195 0.04792 0.1278 0.09585 0.09585 0.30352-0.03195 0.1917-0.1917 0.36742z"/>
   <path d="m79.543 81.573q0.07988 0.0639 0 0.17572l-1.949 2.1407q-0.5112 0.5112-0.92655 0.79875-0.39938 0.28755-0.71888 0.4473-0.30352 0.14378-0.5112 0.1917-0.20768 0.03195-0.30352 0.03195h-0.07988q-0.33548-0.01597-0.55913-0.09585-0.20768-0.07987-0.33548-0.1917-0.1278-0.11182-0.1917-0.23962-0.04792-0.14378-0.04792-0.27158-0.35145 0.3195-0.7668 0.55912-0.39938 0.23963-0.7668 0.23963h-0.01597q-0.36742 0-0.65498-0.23963-0.3195-0.23962-0.46328-0.60705-0.14378-0.36742-0.14378-0.79875 0-0.55912 0.23962-1.1662 0.22365-0.62302 0.68693-1.1822 0.52718-0.67095 1.2301-1.0064 0.7029-0.35145 1.3739-0.35145 0.3195 0 0.60705 0.09585 0.30352 0.07988 0.52718 0.27158 0.43133 0.33548 0.43133 0.81473 0 0.04793-0.01597 0.09585 0 0.04792-0.01597 0.11182l0.7668-1.0064q0.0639-0.09585 0.17572-0.09585 0.1278 0 0.1917 0.1278 0.07988 0.11182 0.11182 0.2556 0.04793 0.14378 0.04793 0.28755 0 0.1278-0.01597 0.15975-0.75083 0.97448-1.3419 1.7413-0.2556 0.33548-0.5112 0.65498-0.23962 0.3195-0.43132 0.5751-0.1917 0.23963-0.3195 0.41535-0.1278 0.15975-0.14378 0.17572 0 0.01597-0.04793 0.07988-0.03195 0.04792-0.03195 0.11182 0 0.1278 0.1917 0.17572 0.1917 0.04793 0.3195 0.04793 0.0639 0 0.23962-0.03195 0.1917-0.03195 0.47925-0.15975 0.28755-0.14378 0.67095-0.41535 0.39938-0.28755 0.8946-0.78278l1.949-2.1407q0.07988-0.07988 0.17572 0zm-7.1568 3.5465q0.23963 0 0.5112-0.1278 0.27158-0.1278 0.55912-0.36742 0.30353-0.23962 0.60705-0.55913 0.30352-0.3195 0.59108-0.68692l0.78278-1.0224q0.23962-0.35145 0.3834-0.639 0.14378-0.30352 0.1278-0.52718 0-0.17572-0.07988-0.33548-0.0639-0.17572-0.23962-0.28755-0.1278-0.07988-0.28755-0.09585-0.14378-0.03195-0.3195-0.03195-0.59108 0-1.2461 0.39938-0.65498 0.3834-1.1662 1.0064-0.43133 0.54315-0.67095 1.1981-0.2556 0.65498-0.2556 1.1981 0 0.22365 0.03195 0.39938 0.01597 0.15975 0.14378 0.28755 0.2556 0.1917 0.52718 0.1917z"/>
   <path d="m105.47 72.851q0.27157 0 0.3834 0.1278 0.11182 0.11182 0.0799 0.28755-0.0319 0.15975-0.17572 0.22365-0.1278 0.0639-0.27158 0.0639-0.17572 0-0.23962-0.0639t-0.11183-0.14378q-0.0319-0.07988-0.0958-0.14378t-0.20767-0.0639q-0.76681 0.07988-1.31 0.3834-0.54315 0.28755-1.0384 0.78278 0.28755 0.3834 0.4473 0.84668t0.15975 0.92655q0 0.47925-0.15975 0.87862-0.14378 0.39938-0.36743 0.71888t-0.47925 0.55912q-0.2556 0.22365-0.47925 0.36743-0.016 0.01597-0.14377 0.09585-0.1278 0.07988-0.41535 0.17572 0.14377 0.07988 0.27157 0.15975 0.1278 0.0639 0.23963 0.14378 0.0639 0.03195 0.1278 0.09585 0.0639 0.04793 0.0958 0.07988 0.20767 0.1917 0.27157 0.41535 0.0799 0.22365 0.0799 0.46328 0 0.46328-0.17573 0.94253-0.17572 0.47925-0.33547 0.94253-0.0639 0.1917-0.1278 0.39938-0.0479 0.17572-0.0958 0.41535-0.0319 0.22365-0.0319 0.46328 0 0.46328 0.1917 0.81473 0.1917 0.33548 0.55912 0.60705 0.17573 0.1278 0.41535 0.22365 0.23963 0.09585 0.52718 0.09585 0.0958 0 0.17572-0.01597 0.0799-0.01597 0.15975-0.03195 0.0958-0.01597 0.20768-0.0639 0.20767-0.09585 0.35145-0.2556 0.15975-0.17572 0.15975-0.49522 0-0.14378-0.0319-0.1917-0.0319-0.04793-0.0799-0.0639-0.0319-0.01597-0.0639-0.03195-0.0319-0.01597-0.0479-0.09585-0.032-0.1278 0.0319-0.27158 0.0799-0.15975 0.1917-0.17572 0.14378-0.01598 0.1917 0.07987 0.0639 0.07988 0.0799 0.22365 0.016 0.14378-0.016 0.30352-0.016 0.14378-0.016 0.22365-0.0319 0.41535-0.22366 0.639-0.17572 0.22365-0.39937 0.33548-0.20768 0.09585-0.41535 0.11183-0.1917 0.01597-0.2556 0.01597-0.35145 0-0.639-0.11183-0.27158-0.11182-0.46328-0.23962-0.23962-0.15975-0.41535-0.35145-0.0319-0.03195-0.1278-0.1278-0.0799-0.09585-0.17572-0.28755-0.0958-0.1917-0.17573-0.47925-0.0799-0.28755-0.0799-0.71888-0.016-0.22365 0.016-0.43133 0.0319-0.20768 0.0639-0.36742 0.0479-0.17572 0.0958-0.3195 0.17573-0.49523 0.3834-0.99045 0.22365-0.49523 0.22365-0.8946 0-0.35145-0.17572-0.54315-0.0319-0.03195-0.0799-0.0639-0.032-0.03195-0.0799-0.0639-0.1278-0.09585-0.3195-0.1917-0.17573-0.11182-0.3834-0.22365-0.1917 0.0639-0.3834 0.11182-0.17573 0.03195-0.35145 0.03195-0.1917 0-0.36742-0.09585-0.17572-0.11182-0.17572-0.35145 0-0.14378 0.09585-0.22365 0.07988-0.0639 0.22365-0.0639 0.1917 0 0.4473 0.11182 0.2556 0.09585 0.52717 0.22365 0.22365-0.07988 0.4473-0.17572 0.23963-0.09585 0.33548-0.17572 0.1917-0.14378 0.3834-0.35145 0.20767-0.22365 0.36742-0.49522 0.17573-0.28755 0.27158-0.62303 0.11182-0.33548 0.11182-0.71888 0-0.46328-0.15975-0.94253-0.0639-0.17572-0.14377-0.3195-0.0799-0.15975-0.15975-0.30353-0.0958 0.09585-0.1917 0.20768-0.0958 0.09585-0.20768 0.22365-0.62302 0.71888-1.4218 1.8851-0.78278 1.1502-1.7892 2.4921-0.17572 0.91058-0.73485 1.6934-0.55913 0.7668-1.4697 1.2301-0.14378 0.07988-0.28755 0.1278-0.14378 0.04793-0.28755 0.09585-0.20768 0.1917-0.41535 0.39938-0.20768 0.1917-0.43132 0.36743-0.8307 0.75082-1.7573 1.2141-0.91058 0.46328-1.8531 0.67095-0.92655 0.20768-1.8371 0.1917-0.91058-0.01597-1.7413-0.22365-0.62303-0.15975-1.1502-0.5112-0.52718-0.35145-0.91058-0.84668-0.36742-0.49522-0.59108-1.1023-0.20768-0.60705-0.20768-1.278 0-0.81473 0.30353-1.5176 0.30352-0.71888 0.8307-1.2461 0.52718-0.52718 1.2301-0.8307 0.71888-0.30352 1.5176-0.30352 0.39938 0 0.7668 0.07988 0.36743 0.07988 0.7029 0.20768 0.04793-1.3739 0.86265-2.556l0.01597-0.01597q0.09585-0.14378 0.20768-0.28755 0.11182-0.14378 0.23962-0.27158l0.0639-0.0639q0.1278-0.1278 0.23962-0.23962 0.1278-0.11182 0.27158-0.22365 0.14378-0.11182 0.3195-0.23962t0.35145-0.22365q0.03195-0.03195 0.07988-0.04793 0.04792-0.01598 0.07988-0.04793 0.15975-0.07988 0.39938-0.1917 0.23962-0.1278 0.75082-0.30352 1.2301-0.39938 2.6838-0.49522 1.4537-0.11182 2.8915 0.17572 0.03195 0 0.1917 0.04793 0.17573 0.03195 0.22365 0.04793 0.54315 0.14378 1.0384 0.3834 0.49522 0.22365 0.8946 0.59108 0.65497-0.46328 1.4537-0.75083 0.79876-0.30352 1.949-0.27158zm-5.4794 6.0066q0.1917 0 0.3834-0.04792-0.17573-0.07988-0.33548-0.1278-0.15975-0.0639-0.2556-0.0639h-0.01597q-0.03195 0-0.03195 0.01597 0 0-0.01598 0h-0.03194v0.03195q0.01597 0.1278 0.0639 0.15975 0.0639 0.01597 0.23962 0.03195zm-0.2556-5.7989q-0.52718-0.1278-1.2301-0.14378-0.68693-0.03195-1.4218 0.03195-0.73485 0.04793-1.4378 0.17572-0.7029 0.1278-1.262 0.3195-0.87863 0.30353-1.5496 0.78278-0.67095 0.47925-1.1342 1.0863-0.46328 0.59108-0.73485 1.294-0.2556 0.68693-0.30353 1.4218 0.22365 0.14378 0.39938 0.23962 0.17572 0.07988 0.43132 0.30353 0.17572 0.15975 0.20768 0.30352 0.04792 0.1278-0.11182 0.2556-0.07988 0.0639-0.1917 0.0639-0.11182-0.01597-0.22365-0.07988-0.09585-0.0639-0.17572-0.14378-0.0639-0.09585-0.0639-0.20768 0-0.07988 0.04792-0.11182 0.04793-0.04792-0.0639-0.15975-0.07988-0.04792-0.14378-0.09585-0.04793-0.04792-0.1278-0.07988v0.07988q0 0.49522 0.09585 1.0064 0.11182 0.5112 0.35145 0.97448 0.52718 1.0064 1.4537 1.5815 0.94253 0.55912 2.0129 0.55912 0.04792 0 0.09585 0 0.0639 0 0.11182-0.01597 1.1342-1.1023 2.0129-2.1886 0.87862-1.1023 1.6135-2.1087-0.07988-0.67095-0.3834-1.262-0.5112-1.0384-1.4537-1.5975-0.94252-0.55913-2.0129-0.55913-0.75083 0-1.5176 0.3195-0.09585 0.0639-0.11182 0.1278-0.01598 0.04792-0.01598 0.09585 0 0.04792 0 0.11182t-0.07987 0.14378q-0.04793 0.03195-0.1278 0.0639-0.07988 0.03195-0.17572 0.04793-0.07988 0.01597-0.15975 0-0.07988-0.01597-0.1278-0.07988-0.22365-0.30352 0.20768-0.52718 0.49522-0.27158 1.0384-0.39938 0.54315-0.14378 1.0703-0.14378 1.1502 0 2.1407 0.59108 1.0064 0.59108 1.5496 1.6934 0.2556 0.5112 0.35145 1.1023 0.7029-0.97448 1.278-1.7732 0.57511-0.79875 1.1183-1.3579 0.20767-0.1917 0.39937-0.36742t0.39938-0.35145q-0.3195-0.3195-0.73485-0.54315-0.41535-0.23962-0.8946-0.3834-0.0958-0.03195-0.20768-0.04792-0.09585-0.01597-0.20768-0.04793zm-13.227 11.214q0.62302 0.49522 1.3898 0.68692 0.92655 0.1917 1.6934 0.17572 0.78278-0.01597 1.5017-0.2556 0.73485-0.23962 1.4697-0.68692t1.5975-1.1183q0.09585-0.07988 0.17572-0.14378 0.07988-0.07987 0.15975-0.17572-0.55913 0-1.0863-0.15975-0.52718-0.15975-1.0064-0.4473-0.46328-0.30352-0.86265-0.71888-0.3834-0.41535-0.67095-0.94253-0.30353-0.55912-0.46328-1.1662-0.14378-0.60705-0.15975-1.2141-0.59108-0.20768-1.1981-0.20768-0.75083 0-1.4218 0.30352-0.65498 0.28755-1.1502 0.79875-0.49523 0.49523-0.78278 1.1822-0.28755 0.67095-0.28755 1.4378 0 0.78278 0.28755 1.4697 0.30352 0.67095 0.81473 1.1822zm9.7607-2.1566q0.71888-0.35145 1.1981-0.92655 0.47925-0.5751 0.73485-1.278-0.4473 0.55912-0.94253 1.1183-0.47925 0.54315-1.0064 1.0863z"/>
   <path d="m113.02 81.573q0.0799 0.0639 0 0.17572l-1.949 2.1407q-0.5112 0.5112-0.92655 0.79875-0.39937 0.28755-0.71887 0.4473-0.30353 0.14378-0.5112 0.1917-0.20768 0.03195-0.30353 0.03195h-0.0799q-0.33548-0.01597-0.55913-0.09585-0.20767-0.07987-0.33547-0.1917-0.1278-0.11182-0.1917-0.23962-0.0479-0.14378-0.0479-0.27158-0.35145 0.3195-0.7668 0.55912-0.39937 0.23963-0.7668 0.23963h-0.016q-0.36742 0-0.65497-0.23963-0.3195-0.23962-0.46328-0.60705-0.14377-0.36742-0.14377-0.79875 0-0.55912 0.23962-1.1662 0.22365-0.62302 0.68693-1.1822 0.52717-0.67095 1.2301-1.0064 0.7029-0.35145 1.3738-0.35145 0.3195 0 0.60705 0.09585 0.30352 0.07988 0.52717 0.27158 0.43133 0.33548 0.43133 0.81473 0 0.04793-0.016 0.09585 0 0.04792-0.016 0.11182l0.7668-1.0064q0.0639-0.09585 0.17572-0.09585 0.1278 0 0.1917 0.1278 0.0799 0.11182 0.11183 0.2556 0.0479 0.14378 0.0479 0.28755 0 0.1278-0.016 0.15975-0.75083 0.97448-1.3419 1.7413-0.2556 0.33548-0.5112 0.65498-0.23963 0.3195-0.43133 0.5751-0.1917 0.23963-0.3195 0.41535-0.1278 0.15975-0.14377 0.17572 0 0.01597-0.0479 0.07988-0.0319 0.04792-0.0319 0.11182 0 0.1278 0.1917 0.17572 0.1917 0.04793 0.3195 0.04793 0.0639 0 0.23963-0.03195 0.1917-0.03195 0.47925-0.15975 0.28755-0.14378 0.67095-0.41535 0.39937-0.28755 0.8946-0.78278l1.949-2.1407q0.0799-0.07988 0.17573 0zm-7.1568 3.5465q0.23962 0 0.5112-0.1278t0.55913-0.36742q0.30352-0.23962 0.60705-0.55913 0.30352-0.3195 0.59107-0.68692l0.78278-1.0224q0.23962-0.35145 0.3834-0.639 0.14377-0.30352 0.1278-0.52718 0-0.17572-0.0799-0.33548-0.0639-0.17572-0.23962-0.28755-0.1278-0.07988-0.28755-0.09585-0.14378-0.03195-0.3195-0.03195-0.59108 0-1.246 0.39938-0.65498 0.3834-1.1662 1.0064-0.43133 0.54315-0.67095 1.1981-0.2556 0.65498-0.2556 1.1981 0 0.22365 0.032 0.39938 0.016 0.15975 0.14377 0.28755 0.2556 0.1917 0.52718 0.1917z"/>
   <path d="m120.5 81.573q0.0799 0.09585 0 0.17572l-2.2205 2.1407q-0.49522 0.47925-0.8946 0.7668-0.39937 0.27158-0.71887 0.43132-0.30353 0.15975-0.52718 0.20768-0.20767 0.04793-0.30352 0.0639-0.65498 0.0639-0.95851-0.20768-0.28755-0.27158-0.27157-0.60705-0.3834 0.36742-0.7668 0.59108-0.3834 0.22365-0.7668 0.22365-0.36743 0-0.67095-0.23963-0.30353-0.23962-0.4473-0.60705-0.14378-0.36742-0.14378-0.79875 0-0.55912 0.22365-1.1662 0.22365-0.62302 0.68693-1.1822 0.54315-0.67095 1.2301-1.0064 0.7029-0.35145 1.3738-0.35145 0.3195 0 0.60706 0.09585 0.30352 0.07988 0.52717 0.27158 0.43133 0.33548 0.43133 0.79875 0 0.07988-0.0319 0.23962l4.4251-5.7191q0.0799-0.11182 0.17573-0.11182 0.1917 0 0.23963 0.14378 0.0479 0.14378 0.0799 0.27158 0.032 0.14378 0.032 0.2556 0.016 0.11182-0.016 0.17572-0.0639 0.07988-0.36743 0.46328t-0.7668 0.97448q-0.4473 0.59108-1.0064 1.3259-0.55912 0.71888-1.1342 1.4697-0.5751 0.75082-1.1342 1.4697-0.54315 0.71888-0.97447 1.294-0.43133 0.55912-0.7029 0.91058-0.27158 0.35145-0.28756 0.36742-0.032 0.03195-0.0479 0.07988-0.0479 0.07988-0.0479 0.1278-0.032 0.09585 0.1278 0.15975 0.15975 0.0639 0.38341 0.03195 0.0639 0 0.23962-0.04793 0.1917-0.04792 0.47925-0.1917t0.67095-0.41535q0.39938-0.27158 0.8946-0.75083l2.2046-2.1247q0.0799-0.07988 0.17573 0zm-7.4284 3.5465q0.23962 0 0.52717-0.14378t0.5751-0.3834q0.30353-0.23962 0.60705-0.55913 0.3195-0.33548 0.60705-0.71888l0.62303-0.79875q0.28755-0.41535 0.46328-0.73485 0.17572-0.33548 0.17572-0.60705 0-0.17572-0.0639-0.3195-0.0639-0.15975-0.2556-0.28755-0.1278-0.07988-0.28755-0.09585-0.15975-0.03195-0.33547-0.03195-0.59108 0-1.2461 0.39938-0.65497 0.3834-1.1502 1.0064-0.4473 0.54315-0.68692 1.2141-0.2556 0.65498-0.2556 1.1822 0 0.17572 0.0319 0.36742 0.032 0.17572 0.15975 0.3195 0.1278 0.1278 0.2556 0.15975t0.2556 0.03195z"/>
   <path d="m127.11 81.573q0.0799 0.09585 0 0.17572l-1.949 2.1407q-0.5112 0.5112-0.92655 0.79875-0.39937 0.28755-0.71887 0.4473-0.30353 0.14378-0.5112 0.1917-0.20768 0.03195-0.30353 0.03195h-0.0799q-0.33548-0.01597-0.55913-0.09585-0.20767-0.07987-0.33548-0.1917-0.1278-0.11182-0.1917-0.23962-0.0479-0.1278-0.0479-0.2556 0-0.14378 0.0639-0.27158 0.0639-0.14378 0.27158-0.41535-0.51121 0.5112-0.92656 0.79875-0.39937 0.28755-0.7029 0.4473-0.3195 0.14378-0.52717 0.1917-0.20768 0.03195-0.30353 0.03195h-0.0799q-0.33548-0.01597-0.54315-0.09585-0.22365-0.07987-0.35145-0.1917-0.1278-0.11182-0.17573-0.23962-0.0639-0.1278-0.0639-0.2556 0-0.14378 0.032-0.22365 0.0319-0.07988 0.0639-0.1278l2.9394-3.834q0.0479-0.07988 0.15975-0.07988 0.1278 0.01597 0.1917 0.14378 0.0799 0.11182 0.11183 0.2556 0.0479 0.14378 0.0479 0.27158 0 0.11182-0.016 0.14378-0.75083 0.97448-1.3419 1.7413-0.2556 0.33548-0.49523 0.65498-0.23962 0.3195-0.43132 0.5751-0.20768 0.2556-0.33548 0.43133-0.1278 0.15975-0.14377 0.17572-0.0319 0.03195-0.0479 0.0639-0.032 0.0639-0.032 0.1278 0.016 0.04793 0.0799 0.14378 0.0639 0.07988 0.3834 0.07988h0.0479q0.0639 0 0.2556-0.03195 0.17573-0.03195 0.46328-0.15975 0.28755-0.14378 0.67095-0.41535 0.39937-0.28755 0.8946-0.78278l1.949-2.1407 0.91058-1.1981q0.0799-0.07988 0.17572-0.07988 0.11183 0.01597 0.17573 0.1278 0.0799 0.11182 0.11182 0.2556 0.0319 0.14378 0.0319 0.27158 0.016 0.11182 0 0.15975-0.75082 0.97448-1.3419 1.7413-0.2556 0.33548-0.49522 0.65498-0.23963 0.3195-0.4473 0.5751-0.1917 0.2556-0.3195 0.43133-0.1278 0.15975-0.14378 0.17572-0.0639 0.09585-0.0639 0.1917 0 0.04793 0.0639 0.1278 0.0639 0.0639 0.3834 0.09585h0.0639q0.0639 0 0.23963-0.03195 0.1917-0.03195 0.47925-0.15975 0.28755-0.14378 0.67095-0.41535 0.39937-0.28755 0.8946-0.78278l1.949-2.1407q0.0799-0.07988 0.17572-0.01597z"/>
   <path d="m130.5 81.589q0.0799 0.09585 0 0.17572l-2.2205 2.1407q0 0.01597-0.016 0.01597-0.47925 0.47925-0.87863 0.7668-0.39937 0.28755-0.7029 0.4473-0.3195 0.14378-0.52717 0.1917-0.20768 0.03195-0.3195 0.03195h-0.1119q-0.3195-0.01597-0.52717-0.07988-0.22365-0.07988-0.33548-0.17572-0.1278-0.11182-0.17573-0.23962-0.0639-0.1278-0.0799-0.2556-0.016-0.14378 0.0319-0.23962 0.0479-0.11182 0.0639-0.14378l3.3068-4.2813q-0.3195 0.04793-0.639 0.0639t-0.65498 0.03195q-0.22365 0.01597-0.3195-0.07988-0.0958-0.11182-0.0958-0.22365 0-0.14378 0.14378-0.22365 0.1278-0.07988 0.27157-0.07988 0.11183 0 0.17573 0.0639 0.0479 0.04792 0.0958 0.11182 0.0479 0.04793 0.0958 0.11182 0.0319 0.04793 0.1278 0.04793 0.27157-0.01597 0.52717-0.03195 0.2556-0.03195 0.49523-0.07988l3.0512-3.9458q0.0799-0.11182 0.17572-0.11182 0.0799 0 0.14378 0.09585 0.0799 0.07988 0.15975 0.33548 0.0799 0.28755 0.0799 0.54315 0 0.43132-0.17572 0.87863-0.15975 0.43132-0.49523 0.8307-0.3195 0.3834-0.78278 0.73485-0.4473 0.33548-1.0224 0.5751-0.4473 0.5751-0.91057 1.1822-0.46328 0.59108-0.8946 1.1662-0.43133 0.55912-0.81473 1.0703-0.3834 0.49522-0.67095 0.87862-0.28755 0.36743-0.46327 0.59108-0.17573 0.22365-0.1917 0.23962-0.032 0.03195-0.0479 0.07988-0.0479 0.07988-0.0479 0.1278 0 0.03195 0.0639 0.09585 0.0479 0.0639 0.36742 0.09585h0.0799q0.0799 0 0.27157-0.03195 0.17573-0.03195 0.46328-0.17572 0.28755-0.14378 0.67095-0.41535 0.39937-0.28755 0.87862-0.7668 0 0 0.016-0.01597l2.1886-2.1247q0.0799-0.07988 0.17573 0zm1.0863-4.9043q-0.2556 0.33548-0.7668 1.0064-0.5112 0.65498-1.1342 1.4697 0.86265-0.46328 1.3579-1.1342 0.49523-0.67095 0.54315-1.3419z"/>
   <path d="m136.12 81.573q0.0799 0.07988-0.016 0.17572-0.5112 0.41535-0.92655 0.65498-0.39937 0.22365-0.75082 0.35145-0.11183 0.17572-0.23963 0.35145-0.11182 0.15975-0.27157 0.33548-0.3195 0.3834-0.71888 0.73485-0.3834 0.33548-0.81472 0.60705-0.41535 0.2556-0.84668 0.41535-0.41535 0.15975-0.79875 0.15975-0.46328 0-0.75083-0.22365-0.3195-0.2556-0.46327-0.62302-0.14378-0.3834-0.14378-0.81473 0-0.55912 0.23963-1.1502 0.23962-0.60705 0.67095-1.1822 0.2556-0.33548 0.60705-0.59108 0.35145-0.27158 0.73485-0.4473 0.3834-0.1917 0.78278-0.27158 0.39937-0.09585 0.7668-0.09585 0.71887 0 1.1822 0.41535 0.49522 0.43133 0.49522 1.1023 0 0.39938-0.2556 0.94253 0.28755-0.1278 0.62303-0.33548 0.33547-0.20768 0.71887-0.52718 0.0958-0.0639 0.17573 0.01597zm-2.3803 1.7093q0.0799-0.11182 0.15975-0.20768 0.0799-0.11183 0.15975-0.22365-0.23962 0.0639-0.46327 0.0639-0.46328 0-0.68693-0.14378-0.20767-0.14378-0.23962-0.17572 0-0.01598-0.15975-0.20768-0.14378-0.1917-0.14378-0.55912 0-0.27158 0.1278-0.5751t0.47925-0.65498q-0.016 0 0.15975-0.14378-0.59107 0.11182-1.1981 0.46328-0.60706 0.33548-1.0544 0.92655-0.41535 0.55912-0.67095 1.2141-0.2556 0.639-0.2556 1.1662 0 0.41535 0.1917 0.65498 0.17573 0.22365 0.59108 0.22365 0.3195 0 0.71888-0.14378 0.39937-0.14378 0.79875-0.3834 0.41535-0.2556 0.79875-0.59108t0.68692-0.7029zm0.5112-0.73485q0.35145-0.60705 0.35145-1.0703 0-0.4473-0.22365-0.71888-0.14377-0.17573-0.30352-0.22365-0.15975-0.0639-0.28755-0.0639-0.27158 0-0.4473 0.14378-0.17573 0.14378-0.1917 0.14378-0.3195 0.33548-0.43133 0.60705-0.11182 0.2556-0.11182 0.46328 0 0.27158 0.11182 0.43132 0.1278 0.14378 0.1278 0.15975 0.1278 0.1278 0.30353 0.1917 0.17572 0.04792 0.4473 0.04792 0.30352 0 0.65497-0.11182z"/>
   <path d="m141.3 81.573q0.0799-0.07988 0.17573 0.01597 0.0799 0.07988-0.016 0.17572-0.3195 0.27158-0.60705 0.3834-0.27157 0.09585-0.49522 0.09585-0.36743 0-0.55913-0.1278t-0.20767-0.14378q-0.14378-0.14378-0.17573-0.3195l-2.0608 2.2365q-0.5112 0.5112-0.92655 0.79875-0.39938 0.28755-0.70291 0.4473-0.3195 0.14378-0.52717 0.1917-0.22365 0.03195-0.3195 0.03195h-0.0799q-0.33547-0.01597-0.54315-0.09585-0.22365-0.07987-0.35145-0.1917-0.1278-0.11182-0.17572-0.23962-0.0479-0.1278-0.0479-0.2556 0-0.14378 0.0319-0.22365 0.032-0.09585 0.0479-0.1278l2.9394-3.834q0.0479-0.07988 0.15975-0.07988 0.1278 0.01597 0.20768 0.14378 0.0799 0.11182 0.11182 0.2556 0.0319 0.1278 0.0319 0.2556t-0.016 0.15975q-0.75083 0.97448-1.3419 1.7413-0.2556 0.33548-0.49522 0.65498-0.23963 0.3195-0.43133 0.5751-0.20767 0.2556-0.33547 0.43133-0.1278 0.15975-0.14378 0.17572l-0.032 0.0639q-0.0319 0.0639-0.0319 0.1278 0 0.04793 0.0639 0.14378 0.0479 0.07988 0.3834 0.07988h0.048q0.0639 0 0.2556-0.03195t0.47925-0.15975q0.28755-0.14378 0.67095-0.41535 0.39938-0.28755 0.8946-0.78278l2.1726-2.3803q0.0319-0.03195 0.0959-0.1278 0.0639-0.11182 0.0958-0.2556 0.016-0.07988-0.016-0.1917t0.016-0.20768q0.1278-0.2556 0.39938-0.2556 0.0958 0 0.17572 0.07988 0.0799 0.0639 0.0799 0.1917 0 0.1917-0.17573 0.35145-0.17572 0.15975-0.30352 0.28755-0.032 0.0639-0.0639 0.14378-0.016 0.0639-0.016 0.14378 0 0.0639 0.016 0.14378 0.0319 0.0639 0.11182 0.14378 0.11183 0.09585 0.23963 0.15975 0.14377 0.04793 0.35145 0.04793 0.17572 0 0.41535-0.07988 0.23962-0.09585 0.52717-0.35145z"/>
   <path d="m139.02 84.576q0-0.1278 0.0319-0.22365 0.016-0.09585 0.0479-0.1278l2.9394-3.818q0.0639-0.09585 0.17572-0.09585 0.1278 0 0.1917 0.1278 0.0799 0.11182 0.11183 0.2556 0.0319 0.14378 0.0319 0.28755 0 0.1278-0.016 0.15975-0.75082 0.97448-1.3419 1.7413-0.2556 0.33548-0.49522 0.65498-0.23963 0.3195-0.43133 0.5751-0.20767 0.23963-0.33547 0.41535-0.1278 0.15975-0.14378 0.17572 0 0.01597-0.0319 0.07988-0.0319 0.04793-0.0319 0.11182 0 0.04793 0.0639 0.1278 0.0479 0.0639 0.3834 0.09585h0.0479q0.0639 0 0.2556-0.03195t0.47925-0.15975q0.28755-0.14378 0.67095-0.41535 0.39937-0.28755 0.87862-0.78278l1.949-2.1407q0.0799-0.07988 0.17572 0 0.0799 0.07988 0.016 0.17572l-1.949 2.1407q-0.5112 0.5112-0.92655 0.79875-0.39937 0.28755-0.7029 0.43132-0.3195 0.14378-0.52717 0.1917-0.22365 0.03195-0.3195 0.03195h-0.0799q-0.33547-0.01597-0.54315-0.07988-0.22365-0.07988-0.35145-0.1917t-0.17572-0.23962q-0.0479-0.14378-0.0479-0.27158zm4.7286-5.128q-0.0799 0.09585-0.23962 0.23963-0.14378 0.1278-0.3195 0.2556-0.15975 0.11182-0.30353 0.17572-0.14377 0.0639-0.1917 0.01597-0.0639-0.04792-0.0319-0.1917 0.0479-0.15975 0.1278-0.33548 0.0959-0.1917 0.1917-0.36743 0.11183-0.17572 0.1917-0.27158 0.15975-0.17572 0.35145-0.22365 0.1917-0.0639 0.30353 0.03195 0.1278 0.11182 0.0958 0.30352-0.016 0.1917-0.17573 0.36742z"/>
   <path d="m150.06 81.573q0.0799 0.09585 0 0.17572l-1.9809 2.0608q-0.33548 0.33548-0.73485 0.62303-0.39938 0.28755-0.8307 0.49522-0.41535 0.1917-0.8307 0.3195-0.39938 0.11183-0.75083 0.11183-0.2556 0-0.49523-0.07988-0.2556-0.07988-0.43132-0.30352-0.43133-0.47925-0.43133-1.262 0-0.55912 0.23963-1.1662 0.22365-0.62302 0.67095-1.1822 0.54315-0.67095 1.246-1.0064 0.7029-0.35145 1.3579-0.35145 0.68692 0 1.1502 0.35145 0.0799 0.0639 0.1917 0.14378 0.1278 0.07988 0.2556 0.20768 0.15975 0.15975 0.15975 0.28755t-0.0959 0.1917q-0.1278 0.07988-0.27158 0.03195-0.14377-0.0639-0.22365-0.17572-0.0639-0.1278-0.0319-0.22365 0.0479-0.11182-0.0319-0.1917-0.3195-0.1917-0.7029-0.1917-0.60705 0-1.262 0.39938-0.639 0.3834-1.1502 1.0064-0.4473 0.54315-0.68692 1.1981-0.23963 0.65498-0.23963 1.1981 0 0.17572 0.0319 0.35145 0.016 0.17572 0.14378 0.33548 0.1917 0.20768 0.60705 0.20768 0.30352 0 0.68693-0.11182 0.39937-0.11182 0.79875-0.30352 0.39937-0.20768 0.78277-0.47925 0.3834-0.28755 0.7029-0.60705l1.9809-2.0608q0.0799-0.07988 0.17573 0z"/>
  </g>
 </g>
</svg>
