<?xml version="1.0" encoding="UTF-8" standalone="no"?>
<!-- Created with Inkscape (http://www.inkscape.org/) -->
<svg id="svg2" xmlns:rdf="http://www.w3.org/1999/02/22-rdf-syntax-ns#" xmlns="http://www.w3.org/2000/svg" height="45.106mm" width="38.617mm" version="1.1" xmlns:cc="http://creativecommons.org/ns#" xmlns:dc="http://purl.org/dc/elements/1.1/" viewBox="0 0 136.83328 159.82296">
 <metadata id="metadata7">
  <rdf:RDF>
   <cc:Work rdf:about="">
    <dc:format>image/svg+xml</dc:format>
    <dc:type rdf:resource="http://purl.org/dc/dcmitype/StillImage"/>
    <dc:title/>
   </cc:Work>
  </rdf:RDF>
 </metadata>
 <g id="layer1" transform="translate(-146.68 -8.249)">
  <g id="g4269" transform="matrix(.32534 0 0 .32534 118.48 -28.828)">
   <path id="path4216" d="m351.53 143.22 6.0609-1.0102" fill-rule="evenodd" stroke="#000" stroke-width="1px" fill="#0090d6"/>
   <g fill="#0062d4">
    <path id="path4234" d="m298.19 602.77c0.003-1.3468 0.34937-32.082 0.76948-68.299l0.76385-65.85 1.8824-2.4583c3.2043-4.1845 8.6834-15.804 45.033-95.501 10.537-23.102 21.514-46.98 24.394-53.062l5.2358-11.058 2.7734 5.8901c3.5047 7.4432 53.719 120.51 61.342 138.13 3.1293 7.2304 5.8365 13.958 6.016 14.951 0.2594 1.4345-0.0243 2.4966-1.3824 5.1746-3.7157 7.327-22.888 32.654-36.277 47.925-7.5812 8.6461-27.795 28.915-36.06 36.158-23.42 20.525-45.899 36.275-67.723 47.452-3.2221 1.6501-6.064 3.0002-6.3153 3.0002-0.25133 0-0.45442-1.102-0.45132-2.4488z"/>
    <path id="path4236" d="m302.11 274.61c-1.7803-77.525-2.8817-160.64-2.1286-160.64 0.41483 0 7.591 3.2005 15.947 7.1123s23.948 10.839 34.648 15.394c37.76 16.073 36.298 15.299 35.248 18.678-1.6703 5.3773-62.323 123.4-78.161 152.09l-4.6121 8.3553-0.94127-40.989z"/>
    <path id="path4238" d="m481.29 371.18c-14.65-35.45-84.71-217.73-83.96-218.48 0.33482-0.33482 8.8771 1.3183 18.983 3.6736s34.705 7.3558 54.664 11.112l36.29 6.8299-0.9067 40.037c-1.4809 65.393-5.34 103.26-14.498 142.24-2.7682 11.784-5.0332 21.735-5.0332 22.113 0 0.37823-0.48215 0.68678-1.0714 0.6857-0.58929-0.001-2.5998-3.6975-4.4678-8.2143z"/>
   </g>
   <g fill="#0090d6">
    <path id="path4242" d="m285.9 598.13c-22.39-12.023-40.234-25.543-68.106-51.606-26.469-24.751-53.157-55.886-63.475-74.051-3.9807-7.0081-6.6387 0.32102 22.695-62.578 28.241-60.556 47.143-99.535 48.268-99.535 0.51324 0 13.363 26.512 28.556 58.916 15.192 32.404 31.983 67.808 37.312 78.677l9.689 19.761-0.55207 68.43c-0.30363 37.637-0.98519 68.419-1.5146 68.406-0.52936-0.0132-6.3217-2.9021-12.872-6.4192z"/>
    <path id="path4244" d="m291.13 298.62c-26.95-46.46-81.16-145.38-80.13-146.22 0.60512-0.49287 9.7558-4.4652 20.335-8.8275s29.222-12.536 41.428-18.164c12.207-5.6281 23.359-10.584 24.783-11.014 2.2972-0.69303 2.5991 0.44819 2.6765 10.118 0.048 5.9947 0.9527 52.18 2.0105 102.63 1.0578 50.454 1.7568 91.939 1.5534 92.189-0.20349 0.25052-5.8974-9.0708-12.653-20.714z"/>
    <path id="path4246" d="m106.46 379.24c-8.014-29.94-12.185-52.55-15.158-82.21-2.3382-23.316-5.6317-111.53-4.3185-115.66 0.44923-1.4154 1.7587-2.9349 2.91-3.3767 1.1512-0.44177 18.966-4.0237 39.588-7.9599s45.087-9.0185 54.366-11.294c14.443-3.542 16.744-3.8031 15.99-1.8149-15.054 39.69-85.287 215.23-89.043 222.55l-2.8062 5.4699-1.5271-5.7036z"/>
   </g>
   <path id="path4228" d="m127.61 428.19-20.934-43.634 3.5518-7.6315c7.5535-16.229 90.053-222.33 91.942-229.69 2.262-8.8148 3.3006-8.0869 11.734 8.2232 21.904 42.364 81.702 148.1 86.802 153.48 3.9556 4.1758-0.67653 12.084 51.329-87.631 35.666-68.386 39.639-76.231 39.639-78.267 0-0.84448 0.85216-1.5354 1.8937-1.5354 1.4771 0 2.5975 2.0154 5.0931 9.1621 4.0115 11.488 85.716 222.76 87.479 226.21 1.1924 2.3299-0.23733 6.168-17.967 48.232-10.595 25.135-19.457 45.506-19.694 45.269-0.23729-0.23729-13.044-28.76-28.46-63.384-43.736-98.232-41.85-94.331-45.01-93.118-2.2084 0.84743-10.272 17.383-36.385 74.612-13.182 28.89-27.219 59.322-31.193 67.626l-7.2249 15.098-30.122-64.71c-43.311-93.043-44.046-94.431-47.505-89.713-4.1066 5.6023-66.969 139.39-71.542 152.26-0.54287 1.5279-1.3256 2.7779-1.7394 2.7779-0.41379 0-10.173-19.635-21.686-43.634z" fill="#fff"/>
  </g>
 </g>
</svg>
